<?xml version="1.0" standalone="no"?>
<!DOCTYPE svg PUBLIC "-//W3C//DTD SVG 20010904//EN"
 "http://www.w3.org/TR/2001/REC-SVG-20010904/DTD/svg10.dtd">
<svg version="1.0" xmlns="http://www.w3.org/2000/svg"
 width="518.000000pt" height="119.000000pt" viewBox="0 0 518.000000 119.000000"
 preserveAspectRatio="xMidYMid meet">

<g transform="translate(0.000000,119.000000) scale(0.100000,-0.100000)"
fill="#000000" stroke="none">
<path d="M3960 1038 c-23 -51 -25 -87 -6 -133 8 -18 11 -37 8 -41 -4 -4 -2 -4
4 -1 6 3 51 -35 100 -86 l89 -92 -90 85 -90 85 84 -87 c47 -48 89 -84 94 -81
10 6 78 -57 72 -67 -2 -3 33 -42 78 -86 45 -43 73 -69 63 -56 -22 26 -11 30
16 5 15 -13 21 -14 31 -4 13 13 27 162 14 154 -5 -3 -7 3 -5 13 2 11 -2 18 -8
17 -6 -1 -22 10 -35 25 l-24 27 25 -20 25 -20 -19 22 c-10 13 -22 20 -26 18
-8 -5 -46 34 -42 44 1 3 -2 6 -6 6 -15 0 -162 137 -157 145 5 8 -13 25 -26 25
-12 0 -144 128 -141 136 1 5 0 9 -3 9 -4 0 -15 -19 -25 -42z m335 -478 c33
-33 57 -60 54 -60 -2 0 -31 27 -64 60 -33 33 -57 60 -54 60 2 0 31 -27 64 -60z"/>
<path d="M4762 898 c-232 -212 -235 -215 -257 -257 -17 -33 -19 -165 -3 -155
5 3 9 0 9 -5 1 -6 2 -17 3 -23 3 -33 50 2 260 195 220 203 246 232 260 290 6
26 -10 114 -19 105 -3 -2 0 -19 5 -38 5 -19 8 -36 5 -38 -4 -5 -30 77 -29 93
3 38 -54 -3 -234 -167z m248 12 c-7 -16 -62 -76 -124 -133 -226 -209 -357
-327 -364 -327 -4 1 5 11 19 23 15 12 121 109 236 215 198 181 232 219 234
260 0 11 2 13 6 4 3 -7 0 -26 -7 -42z"/>
<path d="M2610 600 l0 -240 38 -2 37 -1 -33 -4 c-28 -4 -31 -7 -21 -19 14 -17
43 -18 57 -1 6 6 12 61 14 120 3 106 4 109 32 134 19 16 37 23 53 20 31 -6 30
10 -2 25 -18 8 -31 8 -49 0 -44 -20 -58 -55 -67 -165 l-7 -102 2 108 c2 90 6
112 23 135 40 53 105 55 136 3 13 -23 17 -53 17 -140 l0 -111 25 0 25 0 0 131
c0 76 -5 139 -11 152 -29 56 -97 74 -147 39 -15 -10 -34 -22 -42 -27 -12 -6
-13 -5 -2 6 14 15 16 125 2 134 -10 6 -18 -18 -24 -80 -2 -22 -2 -3 -1 43 l3
82 -29 0 -29 0 0 -240z"/>
<path d="M3677 693 c1 -88 -1 -140 -6 -128 -8 19 -9 19 -14 -5 -3 -14 -9 -43
-12 -65 -14 -89 -83 -145 -180 -145 -31 0 -66 5 -78 12 -20 10 -21 10 -9 -5
35 -42 159 -48 210 -10 15 11 37 35 50 53 12 18 23 29 24 24 1 -5 4 18 8 51 7
59 7 59 8 -27 2 -86 2 -88 27 -88 l24 0 3 240 3 240 -30 0 -30 0 2 -147z"/>
<path d="M70 592 l0 -237 36 -20 c56 -30 68 -15 72 84 2 44 6 81 10 81 5 0 27
-35 50 -79 31 -57 50 -82 71 -91 31 -12 71 -6 71 12 0 6 -21 50 -47 98 l-47
87 37 35 c39 37 47 38 47 3 0 -44 32 -113 72 -155 132 -137 340 -115 414 45
44 93 24 213 -49 292 -56 61 -105 83 -188 83 -92 0 -159 -35 -208 -108 l-36
-53 -13 43 c-24 87 -82 117 -224 118 l-68 0 0 -238z m624 124 c95 -39 111
-168 32 -245 -28 -27 -45 -35 -85 -39 -97 -9 -161 43 -161 129 0 79 34 129
107 155 49 17 66 17 107 0z m-434 -11 c27 -32 -16 -73 -67 -63 -14 3 -17 11
-14 33 1 17 5 33 8 38 8 13 60 8 73 -8z"/>
<path d="M898 825 c-4 -4 -7 -111 -8 -238 l0 -232 31 -17 c59 -34 207 -17 250
28 12 13 27 44 33 69 l12 45 29 -40 c103 -139 284 -162 395 -50 101 100 92
269 -18 373 -60 55 -104 70 -192 65 -86 -5 -151 -42 -195 -112 -24 -40 -30
-62 -33 -122 l-4 -74 -29 42 c-25 38 -26 45 -13 59 19 21 18 87 -4 129 -25 51
-69 71 -165 77 -45 3 -85 2 -89 -2z m648 -120 c40 -26 58 -64 58 -121 0 -60
-19 -94 -75 -132 -29 -20 -43 -23 -93 -20 -53 4 -62 8 -92 41 -29 32 -34 44
-34 87 0 80 33 129 107 156 44 16 94 12 129 -11z m-478 -11 c4 -26 -22 -54
-49 -54 -14 0 -19 7 -19 28 0 15 6 34 12 40 19 19 53 10 56 -14z m6 -164 c20
-7 26 -17 26 -39 0 -31 -12 -45 -48 -54 -39 -9 -52 2 -52 44 0 51 25 68 74 49z"/>
<path d="M1680 788 c0 -37 4 -45 27 -55 15 -7 33 -13 40 -13 10 0 13 -39 13
-183 l0 -182 36 -20 c27 -14 40 -16 52 -8 15 9 17 35 20 196 l2 187 25 6 c13
3 28 3 33 0 12 -7 23 61 16 92 -6 21 -10 22 -135 22 l-129 0 0 -42z"/>
<path d="M2014 820 c-37 -15 -64 -59 -64 -105 0 -38 5 -48 50 -91 27 -26 47
-50 45 -54 -2 -4 12 -22 33 -41 l37 -34 -29 33 c-17 17 -25 32 -19 32 15 0 73
-67 73 -84 0 -26 -35 -57 -71 -62 -31 -5 -39 -2 -65 28 l-30 34 -29 -18 -29
-17 42 -41 c40 -37 47 -40 102 -40 70 0 103 22 125 85 10 29 14 34 15 17 0
-35 -27 -80 -60 -97 -33 -17 -122 -20 -151 -5 -32 18 -21 1 14 -20 69 -43 179
-17 208 49 8 17 17 31 21 31 4 0 3 12 -3 26 -5 15 -7 29 -5 32 3 3 10 -8 16
-24 6 -16 20 -38 30 -49 10 -11 19 -24 18 -30 -1 -21 84 -55 138 -55 78 0 150
34 138 65 -4 10 -16 7 -47 -11 -51 -29 -166 -33 -207 -8 -16 10 -18 13 -5 8
11 -4 54 -9 95 -11 64 -3 80 -1 110 18 l34 21 -23 19 c-22 18 -24 18 -63 -2
-56 -28 -107 -19 -148 27 -24 28 -30 44 -30 79 0 93 105 154 188 111 25 -13
37 -14 52 -6 26 14 19 25 -30 50 -113 58 -260 -10 -260 -120 0 -25 -4 -39 -10
-35 -5 3 -10 1 -10 -4 0 -19 -28 -12 -35 9 -4 11 -39 48 -78 82 -106 91 -113
102 -77 138 27 27 52 25 88 -5 29 -24 29 -24 47 -5 17 19 17 21 0 40 -39 43
-95 59 -141 40z"/>
<path d="M3742 576 l3 -226 -29 0 c-24 0 -27 -2 -16 -15 16 -19 44 -19 59 -1
17 20 11 458 -7 464 -10 3 -12 -41 -10 -222z"/>
<path d="M4952 747 l-42 -43 31 -23 c17 -13 40 -44 51 -69 17 -38 19 -51 9
-83 -15 -49 -69 -95 -136 -114 -51 -15 -57 -15 -97 3 -50 22 -83 56 -72 73 10
16 -10 4 -62 -38 -58 -47 -60 -65 -13 -108 52 -47 62 -45 12 3 -21 20 -28 27
-14 16 14 -12 36 -27 48 -33 13 -6 22 -17 20 -23 -1 -6 25 -20 58 -30 198 -64
408 76 409 272 0 45 -7 80 -22 113 -11 26 -23 47 -27 47 -3 0 1 -13 10 -30 8
-16 15 -33 15 -37 -1 -4 -12 12 -24 37 -13 25 -22 48 -20 51 2 4 -5 14 -16 24
-11 10 -20 15 -20 10 0 -4 -11 0 -25 9 -13 9 -26 16 -28 16 -1 0 -22 -19 -45
-43z m119 -4 c13 -16 12 -17 -3 -4 -10 7 -18 15 -18 17 0 8 8 3 21 -13z m71
-220 c-7 -32 -8 -25 -8 37 0 62 1 69 8 38 4 -21 4 -55 0 -75z m-30 -90 c-11
-21 -35 -52 -54 -69 -34 -33 -107 -74 -130 -74 -7 0 14 13 47 28 64 31 112 78
134 130 8 18 16 31 18 28 2 -2 -5 -21 -15 -43z m-377 -133 c13 -5 14 -9 5 -9
-8 0 -24 4 -35 9 -13 5 -14 9 -5 9 8 0 24 -4 35 -9z m143 -17 c-21 -2 -57 -2
-80 0 -24 2 -7 4 37 4 44 0 63 -2 43 -4z"/>
<path d="M3907 753 c-12 -14 -30 -35 -39 -45 -10 -10 -16 -18 -13 -18 2 0 -3
-19 -11 -42 -15 -43 -17 -191 -2 -182 7 5 22 -32 23 -56 0 -8 7 -15 15 -15 8
0 15 -9 15 -20 0 -13 6 -19 16 -17 9 1 23 -5 30 -15 12 -15 12 -16 -1 -8 -8 4
-12 4 -7 0 4 -5 15 -10 25 -11 9 -2 42 -10 72 -19 91 -27 188 -8 265 51 32 24
72 76 48 61 -6 -4 -27 11 -48 33 l-38 39 -36 -29 c-34 -27 -137 -68 -126 -50
3 4 -4 6 -15 3 -25 -7 -104 43 -97 61 3 7 1 19 -5 27 -8 11 -9 10 -4 -4 3 -10
2 -15 -4 -12 -14 9 -23 71 -16 110 4 21 22 50 43 72 l37 36 -45 38 c-24 21
-47 39 -52 39 -4 0 -17 -12 -30 -27z"/>
<path d="M2030 742 c-20 -16 -21 -21 -10 -42 l13 -24 8 22 c8 21 23 26 64 22
18 -1 18 0 5 13 -26 26 -55 29 -80 9z"/>
<path d="M2163 733 c-24 -16 -31 -43 -12 -43 23 0 49 22 49 40 0 24 -7 24 -37
3z"/>
<path d="M3428 699 c-65 -17 -118 -69 -118 -114 0 -9 -6 -12 -15 -9 -9 4 -15
0 -16 -7 0 -8 -9 5 -19 28 -25 57 -96 103 -158 103 -88 0 -145 -49 -158 -137
-11 -72 3 -113 52 -160 42 -40 48 -43 102 -43 70 0 127 30 153 78 24 45 33 53
19 17 -14 -37 -46 -72 -82 -91 -32 -16 -131 -19 -159 -4 -32 18 -21 1 14 -20
68 -42 180 -16 228 52 13 18 26 34 30 36 3 1 4 15 2 30 l-3 27 10 -25 c15 -33
48 -68 82 -86 40 -21 127 -18 166 6 108 66 102 238 -11 297 -45 23 -87 31
-119 22z m-275 -60 c35 -16 57 -60 57 -115 0 -42 -4 -51 -42 -87 -36 -35 -45
-38 -77 -33 -40 6 -87 50 -97 91 -24 95 73 183 159 144z m399 -28 c22 -25 28
-41 28 -77 0 -58 -11 -78 -61 -110 -50 -31 -98 -25 -134 18 -50 59 -45 128 12
178 32 29 41 32 82 27 34 -4 52 -12 73 -36z"/>
<path d="M3054 621 c-19 -12 -37 -34 -44 -55 -12 -37 -6 -91 11 -102 6 -3 7 4
4 19 -20 77 77 152 148 116 l22 -11 -21 21 c-29 31 -82 36 -120 12z"/>
<path d="M3425 628 c-39 -21 -55 -51 -55 -105 0 -28 5 -55 10 -58 6 -4 10 10
10 35 0 34 6 48 34 76 36 36 69 43 109 23 17 -8 16 -5 -6 15 -30 28 -68 33
-102 14z"/>
<path d="M4008 663 c-37 -40 -48 -67 -47 -110 l2 -38 6 40 c9 53 24 78 63 109
21 16 27 26 17 26 -8 0 -27 -12 -41 -27z"/>
<path d="M4915 678 c11 -6 27 -16 35 -22 9 -6 5 -1 -8 12 -13 12 -28 22 -35
22 -7 0 -3 -6 8 -12z"/>
<path d="M2353 626 c-17 -8 -39 -28 -47 -45 -20 -37 -21 -95 -2 -110 11 -9 12
-7 9 13 -8 38 26 96 63 112 44 18 78 18 116 -2 35 -18 78 -7 78 21 0 18 -17
19 -50 0 -22 -12 -27 -11 -42 2 -24 21 -87 26 -125 9z"/>
<path d="M2903 492 l2 -142 -29 0 c-25 0 -27 -2 -16 -15 7 -9 23 -15 34 -13
18 3 21 11 24 66 2 34 6 61 10 58 13 -8 0 138 -14 164 -12 22 -14 8 -11 -118z"/>
<path d="M4441 564 c-1 -46 -6 -68 -22 -88 -12 -15 -18 -30 -15 -33 10 -10 35
28 47 71 7 26 7 50 1 75 -10 34 -10 33 -11 -25z"/>
<path d="M4075 598 c-10 -33 -11 -79 -1 -87 29 -23 56 -22 81 3 14 14 25 31
25 38 0 7 -10 1 -21 -14 -20 -27 -71 -39 -83 -20 -3 5 9 6 26 4 30 -4 58 15
58 40 0 31 -76 63 -85 36z"/>
<path d="M4795 598 c-2 -7 -5 -20 -8 -28 -12 -40 50 -69 81 -38 18 18 14 56
-7 68 -27 14 -61 13 -66 -2z"/>
<path d="M4891 564 c0 -11 3 -14 6 -6 3 7 2 16 -1 19 -3 4 -6 -2 -5 -13z"/>
<path d="M4992 560 c0 -14 2 -19 5 -12 2 6 2 18 0 25 -3 6 -5 1 -5 -13z"/>
<path d="M4882 524 c-7 -8 -27 -14 -45 -14 -24 0 -28 -3 -17 -10 8 -5 20 -10
26 -10 15 0 61 37 54 43 -3 3 -11 -1 -18 -9z"/>
<path d="M4330 375 c-19 -20 -60 -48 -90 -63 -45 -22 -68 -27 -130 -26 -47 0
-89 7 -113 17 -21 9 -35 12 -32 7 3 -5 31 -17 62 -26 106 -31 237 0 302 70 14
14 28 26 31 26 4 0 10 -18 14 -40 4 -29 18 -52 46 -80 22 -22 46 -40 53 -40
35 0 87 92 87 155 l0 35 -98 0 -98 0 -34 -35z"/>
</g>
</svg>
